<?xml version="1.0" encoding="UTF-8"?>
<svg id="Layer_1" xmlns="http://www.w3.org/2000/svg" version="1.1" viewBox="0 0 1058.4 177.4">
  <!-- Generator: Adobe Illustrator 30.6.0, SVG Export Plug-In . SVG Version: 2.1.4 Build 109)  -->
  <defs>
    <style>
      .st0, .st1, .st2, .st3, .st4, .st5, .st6, .st7 {
        stroke-miterlimit: 10;
      }

      .st0, .st1, .st2, .st3, .st4, .st6, .st7 {
        fill: none;
      }

      .st0, .st2, .st5 {
        stroke: #7e29cc;
      }

      .st0, .st3, .st4, .st6, .st7 {
        stroke-width: 2px;
      }

      .st1 {
        stroke: #fff;
      }

      .st1, .st2 {
        stroke-width: 4px;
      }

      .st8, .st9 {
        fill: #0697a1;
      }

      .st10, .st11, .st12, .st9, .st13 {
        font-family: Montserrat-Black, Montserrat;
        font-size: 20px;
        font-weight: 800;
      }

      .st10, .st14 {
        fill: #0085ff;
      }

      .st11 {
        fill: #66b514;
      }

      .st12 {
        fill: #ff8301;
      }

      .st3 {
        stroke: #0085ff;
      }

      .st4 {
        stroke: #ff8201;
      }

      .st15, .st16 {
        fill: #fff;
      }

      .st5, .st13 {
        fill: #7e29cc;
      }

      .st16 {
        font-family: Montserrat-Bold, Montserrat;
        font-size: 14px;
        font-weight: 700;
      }

      .st17 {
        opacity: .8;
      }

      .st18 {
        fill: #63b210;
        fill-rule: evenodd;
      }

      .st6 {
        stroke: #63b210;
      }

      .st19 {
        fill: #ff8201;
      }

      .st7 {
        stroke: #0697a1;
      }
    </style>
  </defs>
  <path class="st14" d="M105.59151,51.84152v-9.29638c5.21264-.49478,9.30351-4.89206,9.30351-10.23029,0-5.66908-4.61331-10.28203-10.28203-10.28203-3.44953,0-6.49837,1.71085-8.36246,4.32413l-8.06283-4.65514c.59582-1.30312.93731-2.74217.93731-4.26481,0-5.66908-4.61331-10.28203-10.28203-10.28203-5.66908,0-10.28203,4.61331-10.28203,10.28203,0,1.52264.34146,2.96517.93731,4.26481l-8.05936,4.65514c-1.86766-2.61328-4.91641-4.32413-8.36246-4.32413-5.66908,0-10.28203,4.61331-10.28203,10.28203,0,5.33805,4.0906,9.7388,9.30351,10.2303v9.29281c-5.21264.49478-9.30351,4.89206-9.30351,10.2303,0,5.66908,4.61331,10.28203,10.28203,10.28203,3.44952,0,6.49836-1.71085,8.36246-4.32413l8.06283,4.65515c-.59582,1.30312-.93731,2.74217-.93731,4.2648,0,5.66908,4.61331,10.28203,10.28203,10.28203s10.28203-4.61331,10.28203-10.28203c0-1.52264-.34146-2.96517-.93731-4.2648l8.06283-4.65515c1.86766,2.61328,4.91641,4.32413,8.36246,4.32413,5.66908,0,10.28203-4.61331,10.28203-10.28203,0-5.33458-4.09408-9.73524-9.30708-10.22673h.00009ZM96.2327,56.14469l-5.11158-2.95473c.88851-1.81539,1.4007-3.84673,1.4007-5.99661,0-2.13936-.50872-4.16036-1.39027-5.96522l5.11853-2.95473c1.68641,2.36236,4.34152,3.98615,7.38679,4.27533v9.29281c-3.05232.2892-5.71787,1.92332-7.40427,4.30316h.0001ZM54.05113,51.84152v-9.29638c3.04188-.2892,5.69343-1.9094,7.38331-4.26837l5.11854,2.96169c-.87806,1.80139-1.38331,3.81881-1.38331,5.95478,0,2.13936.50871,4.16036,1.39027,5.96522l-5.11854,2.95473c-1.68989-2.36236-4.345-3.98615-7.39036-4.27186l.00009.00018ZM53.07547,40.64252c-1.59935,0-3.09059-.45993-4.36239-1.24737.47736-1.98264,2.28226-3.4704,4.36239-3.4704s3.88508,1.48785,4.36239,3.4704c-1.27181.78746-2.76313,1.24737-4.36239,1.24737ZM74.48336,24.51703c.47736-1.98264,2.28226-3.4704,4.36239-3.4704s3.88508,1.48785,4.36239,3.4704c-1.27181.78398-2.75965,1.24737-4.36239,1.24737-1.59935,0-3.09058-.45993-4.36239-1.24737ZM79.82141,42.86538c1.41114-.05227,2.77357-.21603,4.05233-.48084.25784,1.16031.42509,2.44603.48084,3.83281h-4.53312l-.00005-3.35197ZM79.82141,40.91414v-5.12897c1.35191.55401,2.65511,2.22651,3.52267,4.71081-1.11847.22649-2.30313.36586-3.52267.41812v.00004ZM77.87017,35.78516v5.12897c-1.21953-.04878-2.4042-.19164-3.52267-.41812.86412-2.48438,2.17076-4.15687,3.52267-4.71081v-.00004ZM77.87017,42.86538v3.34846h-4.53312c.05575-1.38678.21951-2.67251.48084-3.83282,1.27877.2683,2.64111.43206,4.05233.48433l-.00005.00003ZM71.38234,46.21732h-4.21263c.16725-2.0209.8467-3.90248,1.91288-5.50183.85018.46691,1.80486.86412,2.84323,1.18814-.29966,1.33452-.48433,2.78749-.54356,4.3136l.00007.00009ZM71.38234,48.16856c.05923,1.52611.24042,2.97908.54704,4.3136-1.03837.32405-1.99655.72126-2.84323,1.18814-1.0662-1.60283-1.74564-3.48083-1.91288-5.50183l4.20908.00009ZM73.33705,48.16856h4.53312v3.34846c-1.41114.05227-2.77357.21603-4.05233.48084-.26133-1.15683-.42858-2.44255-.48084-3.82934l.00005.00004ZM77.87017,53.47174v5.12897c-1.35191-.55401-2.65511-2.22651-3.52267-4.71081,1.11847-.22649,2.30313-.36586,3.52267-.41812v-.00004ZM79.82141,58.60071v-5.12897c1.21953.04878,2.4042.19164,3.52267.41812-.86412,2.48438-2.17076,4.15331-3.52267,4.71081v.00004ZM79.82141,51.5205v-3.34846h4.53312c-.05575,1.38678-.21951,2.67251-.48084,3.83282-1.27877-.2683-2.64111-.43206-4.05233-.48433l.00005-.00003ZM86.30577,48.16856h4.21263c-.16725,2.0209-.8467,3.90248-1.91288,5.50183-.85018-.46691-1.80486-.86412-2.84323-1.18814.30314-1.33452.48781-2.78749.54356-4.3136l-.00007-.00009ZM86.30577,46.21732c-.05923-1.52611-.24042-2.97908-.54704-4.3136,1.03837-.32405,1.99655-.72126,2.84323-1.18814,1.0662,1.60283,1.74564,3.48083,1.91288,5.50183l-4.20908-.00009ZM85.22566,40.02214c-.47387-1.40418-1.0836-2.62719-1.80486-3.62025,1.50176.64112,2.83628,1.59239,3.94431,2.76313-.64461.32753-1.36235.61325-2.13936.85716l-.00009-.00003ZM72.46567,40.02214c-.77701-.24391-1.49481-.52962-2.13936-.85716,1.10456-1.17074,2.43907-2.12197,3.94431-2.76314-.72126.99306-1.33103,2.21607-1.80486,3.62025l-.00009.00004ZM72.46567,54.36364c.47387,1.40418,1.0836,2.62719,1.80486,3.62025-1.50176-.64112-2.83628-1.59239-3.94431-2.76314.64461-.32753,1.36235-.61325,2.13936-.85716l.00009.00004ZM85.22566,54.36364c.77701.24391,1.49481.52962,2.13936.85716-1.10456,1.17074-2.43907,2.12197-3.94431,2.76313.72126-.99306,1.33103-2.21607,1.80486-3.62025l.00009-.00003ZM100.25399,39.39507c.47736-1.98264,2.28226-3.4704,4.36239-3.4704s3.88508,1.48785,4.36239,3.4704c-1.2718.78398-2.75966,1.24737-4.36239,1.24737-1.59935,0-3.09058-.45993-4.36239-1.24737ZM104.61639,23.98763c4.59235,0,8.32758,3.73523,8.32758,8.32758,0,2.22999-.88851,4.25785-2.32062,5.75266-.94427-2.42159-3.28575-4.09408-6.00705-4.09408-2.71782,0-5.06278,1.67597-6.00705,4.09408-1.43558-1.49828-2.32062-3.52267-2.32062-5.75266,0-4.59235,3.73523-8.32758,8.32758-8.32758h.00018ZM95.27452,28.05041c-.59582,1.30312-.93731,2.74217-.93731,4.26481s.34147,2.96517.93731,4.26481l-5.1081,2.94778c-2.28226-3.3589-6.02097-5.64116-10.29987-5.96174l-.01742-5.90251c3.03136-.29617,5.67603-1.91636,7.35896-4.27186l8.06643,4.65871ZM78.84575,9.10978c4.59235,0,8.32758,3.73523,8.32758,8.32758,0,2.22999-.88851,4.25785-2.32062,5.75266-.94427-2.42159-3.28575-4.09408-6.00705-4.09408s-5.06279,1.67597-6.00705,4.09408c-1.43558-1.49829-2.32062-3.52267-2.32062-5.75266,0-4.59235,3.73523-8.32758,8.32758-8.32758h.00018ZM70.4833,23.39241c1.69336,2.36932,4.35891,3.99658,7.41471,4.27533l.01742,5.89555c-4.31708.29268-8.09762,2.58536-10.39353,5.97565l-5.10462-2.95126c.59931-1.30312.94079-2.74565.94079-4.27186,0-1.52264-.34146-2.96517-.93731-4.26481l8.06254-4.65862ZM44.74745,32.31593c0-4.59235,3.73523-8.32758,8.32758-8.32758s8.32758,3.73523,8.32758,8.32758c0,2.22999-.88851,4.25785-2.32062,5.75266-.94427-2.42159-3.28575-4.09408-6.00705-4.09408s-5.06279,1.67597-6.00705,4.09408c-1.4321-1.49481-2.32061-3.52267-2.32061-5.75266h.00018ZM48.71264,69.15265c.47736-1.98264,2.28226-3.4704,4.36239-3.4704s3.88509,1.48785,4.36239,3.4704c-1.27181.78398-2.75965,1.24737-4.36239,1.24737-1.59935,0-3.09059-.45993-4.36239-1.24737ZM59.08208,67.8251c-.94427-2.42159-3.28575-4.09408-6.00705-4.09408-2.71782,0-5.06279,1.67597-6.00705,4.09408-1.43558-1.49829-2.32061-3.52267-2.32061-5.75266,0-4.59235,3.73523-8.32758,8.32758-8.32758s8.32758,3.73523,8.32758,8.32758c0,2.23347-.88851,4.25785-2.32062,5.75266h.00018ZM62.41663,66.33725c.59582-1.30312.93731-2.74217.93731-4.2648s-.34146-2.96517-.93731-4.26481l5.1081-2.94778c2.31009,3.40073,6.11507,5.69691,10.46043,5.9687l.01394,5.88512c-3.09763.25436-5.80841,1.88505-7.51925,4.28229l-8.06322-4.65871ZM74.48265,84.03087c.47736-1.98264,2.28226-3.4704,4.36239-3.4704s3.88508,1.48785,4.36239,3.4704c-1.27181.78398-2.75965,1.24737-4.36239,1.24737-1.59935,0-3.09058-.45993-4.36239-1.24737ZM84.85209,82.70331c-.94427-2.42159-3.28575-4.09408-6.00705-4.09408-2.71782,0-5.06279,1.67597-6.00705,4.09408-1.43558-1.49829-2.32062-3.52267-2.32062-5.75266,0-4.59235,3.73523-8.32758,8.32758-8.32758s8.32758,3.73523,8.32758,8.32758c0,2.23347-.88851,4.25785-2.32062,5.75266h.00018ZM87.20749,70.99588c-1.66206-2.32757-4.26481-3.94083-7.25442-4.26133l-.01742-5.91642c4.23698-.33798,7.93733-2.60632,10.20889-5.93382l5.11158,2.95473c-.58886,1.29268-.9234,2.72478-.9234,4.2335,0,1.52264.34147,2.96517.93731,4.2648l-8.06254,4.65853ZM100.25293,69.15266c.47736-1.98264,2.28226-3.4704,4.36239-3.4704s3.88508,1.48785,4.36239,3.4704c-1.2718.78398-2.75966,1.24737-4.36239,1.24737-1.59935,0-3.09058-.45993-4.36239-1.24737ZM110.62237,67.8251c-.94427-2.42159-3.28575-4.09408-6.00705-4.09408s-5.06278,1.67597-6.00705,4.09408c-1.43558-1.49829-2.32062-3.52267-2.32062-5.75266,0-4.59235,3.73523-8.32758,8.32758-8.32758s8.32758,3.73523,8.32758,8.32758c0,2.23347-.88851,4.25785-2.32062,5.75266h.00018ZM53.0744,33.54216c1.95124,0,3.54015-1.58882,3.54015-3.54015s-1.58882-3.54015-3.54015-3.54015-3.54015,1.58882-3.54015,3.54015,1.58882,3.54015,3.54015,3.54015ZM53.0744,28.41319c.87458,0,1.58882.71429,1.58882,1.58882,0,.87458-.71429,1.58882-1.58882,1.58882s-1.58882-.71429-1.58882-1.58882c0-.87458.71429-1.58882,1.58882-1.58882ZM78.84504,18.66368c1.95124,0,3.54015-1.58882,3.54015-3.54015s-1.58882-3.54015-3.54015-3.54015-3.54015,1.58882-3.54015,3.54015,1.58882,3.54015,3.54015,3.54015ZM78.84504,13.53471c.87457,0,1.58882.71429,1.58882,1.58882s-.71429,1.58882-1.58882,1.58882-1.58882-.71429-1.58882-1.58882c0-.87806.71429-1.58882,1.58882-1.58882ZM104.61567,33.54216c1.95124,0,3.54015-1.58882,3.54015-3.54015s-1.58882-3.54015-3.54015-3.54015-3.54015,1.58882-3.54015,3.54015,1.58882,3.54015,3.54015,3.54015ZM104.61567,28.41319c.87457,0,1.58882.71429,1.58882,1.58882,0,.87458-.71429,1.58882-1.58882,1.58882s-1.58882-.71429-1.58882-1.58882c0-.87458.71429-1.58882,1.58882-1.58882ZM104.61567,56.21846c-1.95124,0-3.54015,1.58882-3.54015,3.54015s1.58882,3.54015,3.54015,3.54015,3.54015-1.58882,3.54015-3.54015-1.58882-3.54015-3.54015-3.54015ZM104.61567,61.34743c-.87457,0-1.58882-.71429-1.58882-1.58882,0-.87457.71429-1.58882,1.58882-1.58882s1.58882.71429,1.58882,1.58882c0,.87805-.71429,1.58882-1.58882,1.58882ZM78.84504,71.09694c-1.95124,0-3.54015,1.58882-3.54015,3.54015s1.58882,3.54015,3.54015,3.54015,3.54015-1.58882,3.54015-3.54015-1.58882-3.54015-3.54015-3.54015ZM78.84504,76.22592c-.87457,0-1.58882-.71429-1.58882-1.58882s.71429-1.58882,1.58882-1.58882,1.58882.71429,1.58882,1.58882c0,.87806-.71429,1.58882-1.58882,1.58882ZM53.0744,56.21846c-1.95124,0-3.54015,1.58882-3.54015,3.54015s1.58882,3.54015,3.54015,3.54015,3.54015-1.58882,3.54015-3.54015-1.58882-3.54015-3.54015-3.54015ZM53.0744,61.34743c-.87458,0-1.58882-.71429-1.58882-1.58882,0-.87457.71429-1.58882,1.58882-1.58882s1.58882.71429,1.58882,1.58882c0,.87805-.71429,1.58882-1.58882,1.58882Z"/>
  <path class="st8" d="M518.60033,14.93282c-4.87253,0-8.02366,4.7217-6.45336,9.29258.62921,1.72646-1.73165,2.67801-2.5168,1.09722,0-.15601-.31201-1.09722-.468-2.98486-2.67801.47321-4.88291,1.09722-6.13612,2.5168-1.57563,1.41442-2.21009,3.62451-1.73165,7.08249.3172,1.58082.78521,3.14607.78521,3.14607.62921,1.73165-1.89286,2.67801-2.36598.94642,0,0-.31201-.62921-.47321-1.57563-2.19957,1.41442-3.30209,3.45811-3.45811,5.9801-.156,5.19481,2.98486,7.71175,7.39452,9.4434,1.57563.6344.78521,3.15126-.94642,2.522,0,0-1.26362-.468-2.67801-1.25322-4.24845,3.93122-4.08724,9.60448-.62921,14.00843,2.20477,2.67802,5.66807,5.0336,10.38977,6.29733-.15601-2.19957.47321-3.61932.47321-3.61932.62921-1.58082,2.98486-.63441,2.35559,1.09722-1.57044,4.56569,1.57563,9.28739,6.45335,9.28739,3.94161,0,7.08768-3.30209,7.08768-7.23851l.0052-48.95826c.0052-3.93642-3.14607-7.08768-7.08768-7.08768l.00002.00004ZM540.79975,14.93282c5.03893,0,8.03418,4.7217,6.45336,9.29258-.62921,1.72646,1.89286,2.67801,2.522,1.09722,0-.15601.47321-1.09722.47321-2.98486,2.67282.47321,4.88291,1.09722,6.29733,2.5168,1.41442,1.41442,2.19957,3.62451,1.73165,7.08249-.3172,1.58082-.94641,3.14607-.94641,3.14607-.62921,1.73165,1.88767,2.67801,2.51681.94642,0,0,.1612-.62921.47842-1.57563,2.04369,1.41442,3.14607,3.45811,3.30209,5.9801.31201,5.19481-2.82884,7.71175-7.23851,9.4434-1.73165.6344-.78521,3.15126.94641,2.522,0,0,1.10241-.468,2.51681-1.25322,4.40966,3.93122,4.25364,9.60448.79561,14.00843-2.20476,2.67802-5.66806,5.0336-10.38977,6.29733.156-2.19957-.47321-3.61932-.47321-3.61932-.62921-1.58082-3.15126-.63441-2.522,1.09722,1.58082,4.56569-1.57044,9.28739-6.45336,9.28739-3.93122,0-7.08249-3.30209-7.08249-7.23851l-.0104-48.95826c0-3.93642,3.30728-7.08768,7.08249-7.08768l-.00003.00004ZM553.08238,54.91599c0-1.72646-2.67282-1.57044-2.67282.15601.31201,3.46849,3.30209,6.13613,6.77045,5.9801,1.73165,0,1.57563-2.67282-.156-2.67282-2.04888.1612-3.78573-1.40923-3.94161-3.4633l-.00002.00002ZM537.18629,66.0961c-1.41961,1.10241.15601,3.30728,1.57563,2.20476,2.19958-1.41961,3.93122-3.62451,4.09243-6.45855.78521.6344,1.25841,1.25841,1.88767,2.04369,1.10241,1.41443,3.14607-.15601,2.19958-1.57044-2.35559-3.30728-5.66807-5.03893-9.59929-4.88291-1.73684.15601-1.58082,2.83403.15601,2.67801.94642,0,2.04369.15601,2.83403.31201.15601.94642.62921,3.31247-3.14607,5.67326v.00016ZM550.24888,41.06784c-1.25842-1.25841-3.15126.62921-1.88767,1.88248,2.19957,2.522,5.0336,3.30728,8.18487,1.89286,1.73165-.6344.62921-3.15126-.94641-2.36078-2.20476.78521-3.7752.31201-5.35084-1.41442l.00005-.00014ZM543.79553,45.3163c1.57044-.62921.62921-3.15126-.94642-2.522-3.30728,1.25841-4.72689,3.78572-4.57088,7.08249.15601,1.73684,2.67801,1.73684,2.67801,0,.0052-2.19438.6344-3.7752,2.83923-4.56049h.00006ZM541.11751,26.89755c-1.73165-.15601-1.88767,2.5168-.15601,2.5168,2.83923.15601,5.35084.94642,7.08249,3.30728.95161,1.41442,3.15126,0,2.04888-1.41961-2.04888-3.14088-5.35603-4.40447-8.97536-4.40447ZM566.30685,40.27763c-.156-3.62451-2.04888-6.77045-5.35084-8.5021.31201-3.30209,0-6.45855-2.522-8.97016-1.88767-1.73684-4.72689-2.68321-8.02366-3.15126-1.10241-4.24326-5.03893-7.39972-9.60448-7.39972-5.35084,0-9.75531,4.40966-9.75531,9.76569v48.95293c0,5.51205,4.40447,9.7605,9.75531,9.7605,4.25365,0,7.87297-2.522,9.29258-6.45336,5.66806-1.41961,9.91652-4.09244,12.59453-7.40491,4.09244-5.19481,4.40966-12.12142-.47321-17.16075,2.82365-2.35559,4.24326-5.8189,4.08724-9.43808l-.00017.00119ZM506.32875,54.91572c.15601-1.72646,2.83923-1.57044,2.67801.15601-.15601,3.46849-3.15126,6.13613-6.60924,5.9801-1.73684,0-1.58082-2.67282.156-2.67282,1.88248.1612,3.7752-1.40923,3.7752-3.4633l.00002.00002ZM522.23017,66.09583c1.57563,1.10241,0,3.30728-1.41442,2.20476-2.36078-1.41961-4.09243-3.62451-4.24845-6.45855-.62921.6344-1.25841,1.25841-1.73165,2.04369-1.10241,1.41442-3.30728-.15601-2.20477-1.57044,2.36598-3.30728,5.51205-5.03893,9.60448-4.88291,1.73165.15601,1.57563,2.83403-.15601,2.67801-1.10241,0-2.04369.15601-2.83403.31201-.1612.94642-.64481,3.31247,2.98486,5.67326v.00016ZM509.31841,41.06757c1.10241-1.25841,3.14607.62921,1.88767,1.88248-2.35559,2.522-5.19482,3.30728-8.34089,1.89286-1.57563-.6344-.62921-3.15126,1.10242-2.36078,2.04369.78521,3.7752.31201,5.35084-1.41442l-.00004-.00014ZM515.77176,45.31602c-1.57563-.62921-.62921-3.15126.94121-2.522,3.15126,1.25841,4.57088,3.78572,4.40966,7.08249,0,1.73684-2.67801,1.73684-2.522,0,0-2.19438-.62401-3.7752-2.82884-4.56049h-.00004ZM518.44458,26.89727c1.73684-.15601,1.73684,2.5168,0,2.5168-2.67282.15601-5.34564.94642-6.92647,3.30728-.94121,1.41442-3.14607,0-2.19958-1.41961,2.19958-3.14088,5.51204-4.40447,9.12617-4.40447h-.00013ZM493.26057,40.27736c.156-3.62451,2.04888-6.77045,5.35084-8.5021-.31201-3.30209,0-6.45855,2.522-8.97016,1.88767-1.73684,4.7217-2.68321,8.02885-3.15126,1.09722-4.24326,5.03893-7.39972,9.43808-7.39972,5.35603,0,9.76569,4.40966,9.76569,9.76569v48.95293c0,5.51205-4.40966,9.7605-9.76569,9.7605-4.08724,0-7.71175-2.522-9.12617-6.45336-5.82928-1.41961-10.07773-4.09244-12.59453-7.40491-4.25365-5.19481-4.57087-12.12142.31201-17.16075-2.67282-2.35559-4.24326-5.8189-3.93122-9.43808l.00016.00119Z"/>
  <g>
    <path class="st19" d="M786.13815,32.44582c-.43317-.93691-1.52734-1.32198-2.46424-.88877-.93691.43316-1.32198,1.55297-.88877,2.46424,2.09847,4.40229,3.14766,9.15138,3.14766,14.05358,0,18.0933-14.7181,32.78922-32.78922,32.78922s-32.78922-14.67292-32.78922-32.76704,14.69593-32.78922,32.78922-32.78922c4.90606,0,9.65162,1.0717,14.05358,3.14766.93691.43316,2.03111.04492,2.46424-.88877.43317-.93691.04492-2.03111-.88877-2.46424-4.90606-2.32625-10.17815-3.51344-15.65205-3.51344-20.10247,0-36.48559,16.38311-36.48559,36.50777s16.38311,36.50776,36.50776,36.50776,36.50776-16.38311,36.50776-36.50776c0-5.47719-1.18719-10.72357-3.51343-15.65205l.00107.00107Z"/>
    <path class="st19" d="M753.14358,27.67833c1.52734,0,3.05788.16043,4.5402.50055.98184.22781,1.98618-.38825,2.21396-1.39254.22781-1.00434-.38825-1.98618-1.39254-2.21396-1.73269-.38825-3.55837-.5936-5.36162-.5936-13.30281,0-24.14219,10.81638-24.14219,24.14219s10.81639,24.14219,24.14219,24.14219,24.14219-10.81638,24.14219-24.14219c0-1.80325-.20535-3.6065-.5936-5.36162-.22781-1.00434-1.2097-1.6204-2.21396-1.39254-1.00435.22781-1.62041,1.2097-1.39254,2.21396.34333,1.48241.50056,3.01295.50056,4.5402,0,11.24927-9.15138,20.41954-20.41954,20.41954-11.27227,0-20.41954-9.15138-20.41954-20.41954,0-11.27227,9.15138-20.41954,20.41954-20.41954l-.02311-.0231Z"/>
    <path class="st19" d="M752.95556,36.52112c-6.48145,0-11.75033,5.27184-11.75033,11.75033,0,6.48145,5.27184,11.75033,11.75033,11.75033,6.48145,0,11.75033-5.27184,11.75033-11.75033,0-2.57973-.84384-4.92849-2.25889-6.86653l15.86795-15.9569c.73158-.73157,1.36894-2.09104.63736-2.82259-.73157-.73158-2.27315-.27632-3.00469.45526l-16.12527,15.69957c-1.93805-1.41505-4.29-2.25889-6.86653-2.25889l-.00025-.00025ZM752.95556,56.3246c-4.42792,0-8.05372-3.6065-8.05372-8.03121,0-4.42792,3.6065-8.05372,8.05372-8.05372,4.45042,0,8.05372,3.6065,8.05372,8.05372,0,4.45042-3.6065,8.03121-8.05372,8.03121Z"/>
  </g>
  <path class="st18" d="M958.0207,51.6741h-8.66743v19.97939h8.66743v-19.97939ZM973.90036,45.31961h-8.66743v26.33388h8.66743v-26.33388ZM989.78001,40.75253h-8.66743v30.90095h8.66743v-30.90095ZM1005.65966,32.41731h-8.66743v39.23617h8.66743v-39.23617ZM988.40676,27.57121l9.79168-5.18519c-.39944-1.72801.67759-3.45265,2.4056-3.85208s3.45265.67759,3.85208,2.4056-.67759,3.45265-2.4056,3.85208c-1.07875.24936-2.20987-.07458-2.9931-.85717-.02961-.02961-.05839-.05964-.08634-.09009l-10.35725,5.48487c-.2874,1.74943-1.93858,2.93464-3.68802,2.64724-.84805-.13932-1.60482-.61288-2.10091-1.31466l-10.09886,3.7375c.31209,1.74485-.84939,3.41232-2.59424,3.72441-1.03342.18484-2.09192-.14742-2.83432-.88969l-.03754-.03816-10.40354,5.81833c-.2794,1.74723-1.92231,2.93714-3.66954,2.65774-1.74723-.2794-2.93714-1.92231-2.65774-3.66954.2794-1.74723,1.92231-2.93714,3.66954-2.65774,1.08578.17363,2.00666.89193,2.43939,1.90277l9.81796-5.48862c-.43732-1.71775.60067-3.46477,2.31842-3.90209,1.09764-.27945,2.26131.04036,3.06197.84152.06507.06507.12763.13263.18769.2027l10.22962-3.78567c-.00917-.09927-.01376-.19978-.01376-.30155.00225-1.77288,1.44128-3.20826,3.21416-3.20601,1.29072.00164,2.45493.77617,2.95514,1.96602l-.00251-.0025Z"/>
  <circle class="st3" cx="79.2" cy="47.8" r="46.8"/>
  <circle class="st0" cx="302.4" cy="47.8" r="46.8"/>
  <circle class="st7" cx="529.2" cy="47.8" r="46.8"/>
  <circle class="st4" cx="752.4" cy="47.8" r="46.8"/>
  <circle class="st6" cx="979.2" cy="47.8" r="46.8"/>
  <g>
    <g>
      <path class="st5" d="M324.13647,77.30835c-.544,0-1.088-.23315-1.43772-.69943-.62172-.77715-.46629-1.94286.34971-2.52572,8.43202-6.41145,13.25032-16.12576,13.25032-26.69494,0-18.4572-15.03776-33.49496-33.49496-33.49496s-33.49496,15.03776-33.49496,33.49496c0,10.53032,4.8183,20.28349,13.21147,26.65609.77715.62172.93257,1.74858.34972,2.52572-.62172.77715-1.74858.93257-2.52572.34971-9.32574-7.07202-14.64919-17.83548-14.64919-29.53152,0-20.47778,16.63091-37.10869,37.10869-37.10869s37.10869,16.63091,37.10869,37.10869c0,11.69604-5.3623,22.4595-14.68805,29.57038-.31085.23315-.69943.34971-1.088.34971Z"/>
      <path class="st5" d="M318.77417,70.27518c-.544,0-1.088-.23315-1.43772-.69943-.58286-.77715-.46629-1.94286.34971-2.52572,6.21716-4.70173,9.75318-11.89032,9.75318-19.66177,0-13.60004-11.07432-24.67436-24.67436-24.67436s-24.67436,11.07432-24.67436,24.67436c0,7.77145,3.53601,14.92119,9.75317,19.62292.77715.62172.93257,1.74858.34972,2.52572-.62172.77715-1.74858.93257-2.52572.34971-7.11088-5.40116-11.15203-13.60004-11.15203-22.49836,0-15.58176,12.66747-28.24923,28.24923-28.24923s28.24923,12.66747,28.24923,28.24923c0,8.89831-4.08001,17.13605-11.19089,22.53722-.272.23315-.66057.34972-1.04914.34972Z"/>
      <path class="st5" d="M313.99472,63.98031c-.544,0-1.088-.23315-1.43772-.69943-.58286-.77715-.42743-1.94286.34971-2.52572,4.23544-3.18629,6.64459-8.08231,6.64459-13.3669,0-9.24803-7.49945-16.74748-16.74748-16.74748s-16.74748,7.49945-16.74748,16.74748c0,5.28459,2.40915,10.14175,6.60573,13.32804.77715.62172.93257,1.74858.34972,2.52572-.62172.77715-1.74858.93257-2.52572.34971-5.0903-3.88573-8.04345-9.79203-8.04345-16.20348,0-11.22975,9.13145-20.3612,20.3612-20.3612s20.3612,9.13146,20.3612,20.36121c0,6.41145-2.95315,12.35661-8.08231,16.24233-.31085.23315-.69943.34972-1.088.34972Z"/>
    </g>
    <circle class="st2" cx="302.77876" cy="46.72755" r="8.97861"/>
    <circle class="st2" cx="302.88961" cy="78.31894" r="8.97861"/>
    <rect class="st5" x="300.30964" y="55.48446" width="4.8887" height="13.74503"/>
  </g>
  <text class="st10" transform="translate(22.60085 120.2399)"><tspan x="0" y="0">AUDIENCE</tspan></text>
  <text class="st13" transform="translate(247.91239 120.2399)"><tspan x="0" y="0">LEARNING</tspan></text>
  <text class="st9" transform="translate(455.52117 120.23966)"><tspan x="0" y="0">INTELLIGENCE</tspan></text>
  <text class="st12" transform="translate(659.561 120.23966)"><tspan x="0" y="0">COMMUNICATION</tspan></text>
  <text class="st11" transform="translate(931.33035 120.2399)"><tspan x="0" y="0">RESULTS</tspan></text>
  <text class="st16" transform="translate(16.26377 137.3878)"><tspan x="0" y="0">Every interaction </tspan><tspan x="31.1499" y="16.80005">happens</tspan></text>
  <text class="st16" transform="translate(265.37229 137.3878)"><tspan x="0" y="0">Behavior is </tspan><tspan x="-14.99414" y="16.80005">captured every</tspan></text>
  <text class="st16" transform="translate(678.27303 137.38772)"><tspan x="0" y="0">Create, align, and act </tspan><tspan x="17.61182" y="16.80005">with confidence</tspan></text>
  <text class="st16" transform="translate(476.83584 137.3878)"><tspan x="0" y="0">Patterns reveal </tspan><tspan x="6.3208" y="16.80005">what matters</tspan></text>
  <text class="st16" transform="translate(911.29391 137.3878)"><tspan x="0" y="0">Smarter decisions,</tspan><tspan x="-2.99658" y="16.80005">Stronger outcomes</tspan></text>
  <g class="st17">
    <line class="st1" x1="136.79995" y1="47.8" x2="233.26199" y2="47.8"/>
    <polygon class="st15" points="220.00808 64.15938 217.27957 61.22969 231.72683 47.80391 217.27957 34.37422 220.00808 31.44453 237.6 47.80391 220.00808 64.15938"/>
  </g>
  <g class="st17">
    <line class="st1" x1="367.19998" y1="47.8" x2="463.66201" y2="47.8"/>
    <polygon class="st15" points="450.40798 64.15938 447.67947 61.22969 462.12686 47.80391 447.67947 34.37422 450.40798 31.44453 468.00002 47.80391 450.40798 64.15938"/>
  </g>
  <g class="st17">
    <line class="st1" x1="590.40005" y1="47.8" x2="686.86202" y2="47.8"/>
    <polygon class="st15" points="673.60806 64.15938 670.87954 61.22969 685.32681 47.80391 670.87954 34.37422 673.60806 31.44453 691.19998 47.80391 673.60806 64.15938"/>
  </g>
  <g class="st17">
    <line class="st1" x1="813.6" y1="47.8" x2="910.06198" y2="47.8"/>
    <polygon class="st15" points="896.80807 64.15938 894.07949 61.22969 908.52682 47.80391 894.07949 34.37422 896.80807 31.44453 914.39999 47.80391 896.80807 64.15938"/>
  </g>
</svg>